<svg width="129" height="129" viewBox="0 0 129 129" fill="none" xmlns="http://www.w3.org/2000/svg">
<path d="M104.146 66.7361L47.1764 104.716C46.7717 104.985 46.3015 105.14 45.8159 105.163C45.3303 105.186 44.8476 105.077 44.419 104.848C43.9904 104.618 43.6321 104.277 43.3822 103.86C43.1324 103.443 43.0003 102.966 43 102.48V26.5203C43.0003 26.0342 43.1324 25.5573 43.3822 25.1403C43.6321 24.7233 43.9904 24.3819 44.419 24.1524C44.8476 23.923 45.3303 23.8141 45.8159 23.8373C46.3015 23.8605 46.7717 24.015 47.1764 24.2843L104.146 62.2641C104.514 62.5095 104.816 62.842 105.025 63.2321C105.233 63.6221 105.343 64.0577 105.343 64.5001C105.343 64.9425 105.233 65.378 105.025 65.7681C104.816 66.1582 104.514 66.4907 104.146 66.7361Z" fill="#FCBD17"/>
</svg>
